
        <svg xmlns="http://www.w3.org/2000/svg" xmlns:xlink="http://www.w3.org/1999/xlink" version="1.1" width="3187.5" height="944.015514129913" viewBox="0 0 3187.5 944.015514129913">
			
			<g transform="scale(9.375) translate(10, 10)">
				<defs id="SvgjsDefs2006"/><g id="SvgjsG2007" featureKey="QMusi1-0" transform="matrix(2.3400025154598576,0,0,2.3400025154598576,-65.503690486679,-77.2739092093949)" fill="#000"><path xmlns="http://www.w3.org/2000/svg" d="M27.993,35.58l7.305,7.303l-7.305,7.306l2.557,2.557l9.863-9.862l-9.863-9.861L27.993,35.58z M42.148,47.975v3.617h28.58  v-3.617H42.148z M42.148,59.55h28.58v-3.617h-28.58V59.55z M42.148,67.508h14.29v-3.617h-14.29V67.508z"/></g><g id="SvgjsG2008" featureKey="UyNsn2-0" transform="matrix(4.2789882585074075,0,0,4.2789882585074075,116.06333047571229,-14.390232257339981)" fill="#000"><path d="M4.72 17.16 l5.68 0 l0 2.84 l-9.44 0 l0 -2.4 l5.62 -9.06 l-3.12 0 l0 1.74 l-2.54 -1.38 l0 -3.2 l9.44 0 l0 2.38 z M17.34 15.42 c-0.13334 -0.02666 -0.2733 -0.04338 -0.41996 -0.050038 s-0.27332 -0.01 -0.37998 -0.01 c-0.56 0 -1.0133 0.08666 -1.36 0.26 s-0.52 0.47334 -0.52 0.9 c0 0.26666 0.06334 0.47666 0.19 0.63 s0.28332 0.26668 0.46998 0.34002 s0.38332 0.11668 0.58998 0.13002 s0.38332 0.02 0.52998 0.02 c0.26666 0 0.56666 -0.03334 0.9 -0.1 l0 -2.12 z M16.3 13.219999999999999 c0.10666 0 0.24996 0.0033594 0.42996 0.01002 s0.38334 0.01666 0.61 0.03 c-0.01334 -0.52 -0.19668 -0.85666 -0.55002 -1.01 s-0.81 -0.23 -1.37 -0.23 c-0.30666 0 -0.66 0.03666 -1.06 0.11 s-0.83334 0.18334 -1.3 0.33 l-0.32 -1.1 c-0.04 -0.14666 -0.09666 -0.36 -0.17 -0.64 s-0.12334 -0.5 -0.15 -0.66 c0.66666 -0.22666 1.2967 -0.39 1.89 -0.49 s1.13 -0.15 1.61 -0.15 c1.4133 0 2.5066 0.33666 3.28 1.01 s1.16 1.75 1.16 3.23 l0 5.86 c-0.52 0.14666 -1.12 0.29 -1.8 0.43 s-1.4133 0.21 -2.2 0.21 c-0.69334 0 -1.3233 -0.06 -1.89 -0.18 s-1.0533 -0.32 -1.46 -0.6 s-0.72 -0.64666 -0.94 -1.1 s-0.33 -1.0067 -0.33 -1.66 s0.13666 -1.2 0.41 -1.64 s0.62668 -0.79 1.06 -1.05 s0.92 -0.44334 1.46 -0.55 s1.0833 -0.16 1.63 -0.16 z M22.32 8.4 c0 0.01334 -0.09002 0.019961 -0.27002 0.019961 l-0.59 0 l-0.84 0 l1.36 -2.44 l3.36 0 l0 4.52 c0.28 -0.26666 0.62666 -0.50332 1.04 -0.70998 s0.90668 -0.31 1.48 -0.31 c1.1867 0 2.07 0.33 2.65 0.99 s0.87 1.71 0.87 3.15 l0 6.38 l-3.04 0 l0 -5.98 c0 -0.52 -0.12 -0.93334 -0.36 -1.24 s-0.60666 -0.46 -1.1 -0.46 c-0.42666 0 -0.79 0.11666 -1.09 0.35 s-0.45 0.67668 -0.45 1.33 l0 6 l-3.06 0 z M36.779999999999994 9.56 l0 10.44 l-3.02 0 l0 -7.22 l0.1 -0.72 l-1.72 0 l1.36 -2.5 l3.28 0 z M36.699999999999996 8.7 l-3 0 l0 -2.72 l3 0 l0 2.72 z M47.66 5.98 l0.000019531 13.74 c-0.48 0.10666 -0.94666 0.18666 -1.4 0.24 s-0.86668 0.09334 -1.24 0.12 s-0.69334 0.04 -0.96 0.04 l-0.54 0 c-0.90666 0 -1.67 -0.14 -2.29 -0.42 s-1.12 -0.66 -1.5 -1.14 s-0.65666 -1.0367 -0.83 -1.67 s-0.26 -1.31 -0.26 -2.03 c0 -0.92 0.11666 -1.71 0.35 -2.37 s0.56 -1.2033 0.98 -1.63 s0.92 -0.74332 1.5 -0.94998 s1.2233 -0.31 1.93 -0.31 c0.12 0 0.25666 0.01 0.41 0.03 s0.3 0.04334 0.44 0.07 s0.27 0.05666 0.39 0.09 s0.21334 0.07 0.28 0.11 l0 -1.18 l0.06 -0.26 l-1.8 0 l1.34 -2.48 l3.14 0 z M43.839999999999996 17.44 c0.2 0 0.39334 -0.0066602 0.58 -0.02 s0.35332 -0.03334 0.49998 -0.06 l0 -5.12 c-0.09334 -0.01334 -0.2 -0.03334 -0.32 -0.06 c-0.10666 -0.02666 -0.23 -0.04666 -0.37 -0.06 s-0.29666 -0.02 -0.47 -0.02 c-0.62666 0 -1.1533 0.21334 -1.58 0.64 s-0.64 1.1333 -0.64 2.12 c0 0.49334 0.06 0.90668 0.18 1.24 s0.28334 0.6 0.49 0.8 s0.45 0.34 0.73 0.42 s0.58 0.12 0.9 0.12 z"/></g>
			</g>
		</svg>
	